<?xml version="1.0" standalone="no"?>
<!DOCTYPE svg PUBLIC "-//W3C//DTD SVG 20010904//EN"
 "http://www.w3.org/TR/2001/REC-SVG-20010904/DTD/svg10.dtd">
<svg version="1.0" xmlns="http://www.w3.org/2000/svg"
 width="360.000000pt" height="360.000000pt" viewBox="0 0 360.000000 360.000000"
 preserveAspectRatio="xMidYMid meet">

<g transform="translate(0.000000,360.000000) scale(0.100000,-0.100000)"
fill="#000000" stroke="none">
<path d="M1682 2990 c-620 -63 -1088 -605 -1058 -1225 6 -131 30 -251 71 -361
l26 -72 -50 -99 c-86 -172 -197 -473 -208 -566 -4 -31 -1 -57 7 -73 19 -35 93
-79 181 -107 73 -24 248 -57 303 -57 l26 0 0 495 0 495 315 0 c173 0 315 3
315 8 0 16 -132 183 -213 269 -48 50 -87 94 -87 98 0 12 151 -117 222 -189 38
-39 87 -97 109 -128 l40 -58 505 -2 505 -3 -1 -488 -1 -488 38 7 c216 39 363
115 363 189 0 60 -93 329 -187 539 l-49 109 36 91 c91 228 112 467 61 696
-130 581 -679 979 -1269 920z m-302 -376 c0 -3 -9 -19 -21 -35 -51 -72 -188
-392 -232 -544 l-15 -50 69 -70 69 -70 -63 -34 c-89 -49 -186 -114 -230 -157
-21 -20 -40 -34 -43 -32 -14 15 -26 137 -21 233 14 301 157 551 413 724 58 39
74 47 74 35z m1000 -100 c68 -55 72 -59 138 -143 169 -213 225 -478 166 -773
l-5 -27 -73 62 c-74 66 -166 131 -225 161 l-34 18 77 77 c42 42 76 84 76 93 0
33 -90 308 -149 452 -32 80 -53 143 -47 139 6 -3 40 -30 76 -59z m-397 -379
c54 -8 125 -22 158 -30 70 -18 232 -76 227 -81 -2 -1 -56 12 -120 31 -309 89
-509 101 -755 45 -93 -21 -199 -51 -246 -69 -59 -23 -49 -9 13 19 84 38 186
69 280 85 104 18 326 18 443 0z"/>
<path d="M991 398 c-1 -17 46 -18 849 -18 803 0 850 1 849 18 0 10 -3 12 -6 5
-7 -19 -1679 -19 -1686 0 -3 7 -6 5 -6 -5z"/>
</g>
</svg>
